<svg xmlns="http://www.w3.org/2000/svg" width="825.767" height="640.565" viewBox="0 0 825.767 640.565">
  <g id="Group_1" data-name="Group 1" transform="translate(0 0)">
    <path id="Path_1" data-name="Path 1" d="M479.735,627.22H288.489l6.483-84.277h178.28Z" fill="#e6e6e6"/>
    <rect id="Rectangle_1" data-name="Rectangle 1" width="213.936" height="19.449" transform="translate(278.765 617.496)" fill="#e6e6e6"/>
    <path id="Path_2" data-name="Path 2" d="M937.512,129.717H206.565a19.449,19.449,0,0,0-19.449,19.449v445.7H956.961v-445.7a19.449,19.449,0,0,0-19.449-19.449Z" transform="translate(-187.117 -129.717)" fill="#3f3d56"/>
    <path id="Path_3" data-name="Path 3" d="M187.117,594.865V667.8a19.449,19.449,0,0,0,19.449,19.449H937.512A19.449,19.449,0,0,0,956.961,667.8V594.865Z" transform="translate(-187.117 -129.717)" fill="#e6e6e6"/>
    <rect id="Rectangle_2" data-name="Rectangle 2" width="693.67" height="388.974" transform="translate(38.897 40.518)" fill="#e6e6e6"/>
    <circle id="Ellipse_1" data-name="Ellipse 1" cx="19.449" cy="19.449" r="19.449" transform="translate(366.283 491.079)" fill="#3f3d56"/>
    <circle id="Ellipse_2" data-name="Ellipse 2" cx="3.691" cy="3.691" r="3.691" transform="translate(56.835 49.566)" fill="#fff"/>
    <circle id="Ellipse_3" data-name="Ellipse 3" cx="3.691" cy="3.691" r="3.691" transform="translate(70.845 49.566)" fill="#fff"/>
    <circle id="Ellipse_4" data-name="Ellipse 4" cx="3.691" cy="3.691" r="3.691" transform="translate(84.855 49.566)" fill="#fff"/>
    <path id="Path_4" data-name="Path 4" d="M983.461,392.775s5.945,77.282-2.378,79.66-38.047,20.212-85.6,15.456c0,0-46.369,24.968-39.235,1.189s39.235-17.834,39.235-17.834,57.07-11.889,59.448-20.212-7.134-42.8-3.567-43.991S983.461,392.775,983.461,392.775Z" transform="translate(-187.117 -129.717)" fill="#ffb8b8"/>
    <path id="Path_5" data-name="Path 5" d="M979.461,393.775s5.945,77.282-2.378,79.66-38.047,20.212-85.6,15.456c0,0-46.369,24.968-39.235,1.189s39.235-17.834,39.235-17.834,57.07-11.889,59.448-20.212-7.134-42.8-3.567-43.991S979.461,393.775,979.461,393.775Z" transform="translate(-187.117 -129.717)" fill="#231f20" opacity="0.2"/>
    <path id="Path_6" data-name="Path 6" d="M912.7,518.1s4.178,130.069,11.311,146.715c5.942,13.865,9.409,59.077,10.4,73.795.2,2.951.3,4.676.3,4.676s19.023,0,20.212-4.756,4.756-57.07,0-73.715S961.7,525.1,961.7,525.1Z" transform="translate(-187.117 -129.717)" fill="#2f2e41"/>
    <path id="Path_7" data-name="Path 7" d="M939.47,737.338s-11.89,3.567-14.267,8.323-41.613,13.078-29.724,19.023,47.558-4.756,47.558-4.756,19.023-1.189,17.834-8.323-5.519-15.924-5.519-15.924Z" transform="translate(-187.117 -129.717)" fill="#2f2e41"/>
    <path id="Path_8" data-name="Path 8" d="M972.76,741.139s-11.89,3.567-14.267,8.323-41.614,13.078-29.724,19.022,47.558-4.756,47.558-4.756,19.023-1.189,17.834-8.323-5.519-15.924-5.519-15.924Z" transform="translate(-187.117 -129.717)" fill="#2f2e41"/>
    <path id="Path_9" data-name="Path 9" d="M922.824,524.749l16.645,28.535,27.78,99.21s-2.812,91.022.755,91.022,22.59,5.945,23.779,0c1-5.022,14.321-53.125,7.683-85.143a409.429,409.429,0,0,1-8.308-61.426l-2.942-55.553s11.89-21.4-1.189-24.968S922.824,524.749,922.824,524.749Z" transform="translate(-187.117 -129.717)" fill="#2f2e41"/>
    <circle id="Ellipse_5" data-name="Ellipse 5" cx="28.535" cy="28.535" r="28.535" transform="translate(722.629 154.863)" fill="#ffb8b8"/>
    <path id="Path_10" data-name="Path 10" d="M934.714,332.139s4.756,38.047,3.567,40.424,28.535-26.157,28.535-26.157-10.7-16.645-8.323-24.968Z" transform="translate(-187.117 -129.717)" fill="#ffb8b8"/>
    <path id="Path_11" data-name="Path 11" d="M1001.3,370.185s-33.291-23.779-34.48-28.535l-24.968,21.4L937.61,358s-19.536,19.318-19.536,27.64-1.189,33.291,2.378,40.424-10.7,97.494-10.7,97.494,11.89,10.7,13.078,11.89,48.747-7.134,48.747-7.134,23.779-2.378,23.779-5.945-7.134-57.07-4.756-71.337S1001.3,370.185,1001.3,370.185Z" transform="translate(-187.117 -129.717)" fill="#575a89"/>
    <path id="Path_12" data-name="Path 12" d="M926.092,298.861c3.9-1.388,8.2-2.1,12.18-.95,5.629,1.629,9.527,6.563,13.732,10.644s10.1,7.7,15.637,5.778a9.168,9.168,0,0,1,1.751-6.771,6.226,6.226,0,0,0,1.555-2.588c.236-1.528-1.049-2.846-1.434-4.344-.675-2.625,1.176-6.218-1.1-7.689-.6-.388-1.362-.477-1.948-.887-2.3-1.608.254-5.609-1.267-7.968a4.866,4.866,0,0,0-1.729-1.442c-11.033-6.437-24.525-6.455-37.3-6.293-1.778.023-4.253.906-3.752,2.612-2.414-1.733-5.575.7-7.52,2.946l-3.982,4.6a35.411,35.411,0,0,0-4.867,6.583c-1.216,2.326-1.485,5.9.936,6.917-1.8-.754-3.983,9.908,4.314,8.153C916.123,307.14,920.848,300.727,926.092,298.861Z" transform="translate(-187.117 -129.717)" fill="#2f2e41"/>
    <rect id="Rectangle_3" data-name="Rectangle 3" width="655.74" height="326.674" transform="translate(56.835 65.798)" fill="#fff"/>
    <rect id="Rectangle_4" data-name="Rectangle 4" width="143.321" height="125.177" transform="translate(96.424 113.806)" fill="#e6e6e6"/>
    <rect id="Rectangle_5" data-name="Rectangle 5" width="142.89" height="124.8" transform="translate(313.698 114.182)" fill="#e6e6e6"/>
    <rect id="Rectangle_6" data-name="Rectangle 6" width="144.291" height="126.024" transform="translate(528.695 112.958)" fill="#e6e6e6"/>
    <rect id="Rectangle_7" data-name="Rectangle 7" width="140.176" height="12.949" transform="translate(96.424 293.621)" fill="#e6e6e6"/>
    <rect id="Rectangle_8" data-name="Rectangle 8" width="70.232" height="12.949" transform="translate(96.424 316.418)" fill="#00abf4"/>
    <rect id="Rectangle_9" data-name="Rectangle 9" width="140.176" height="12.949" transform="translate(316.034 293.621)" fill="#e6e6e6"/>
    <rect id="Rectangle_10" data-name="Rectangle 10" width="70.232" height="12.949" transform="translate(316.034 316.418)" fill="#00abf4"/>
    <rect id="Rectangle_11" data-name="Rectangle 11" width="140.176" height="12.949" transform="translate(530.154 293.621)" fill="#e6e6e6"/>
    <rect id="Rectangle_12" data-name="Rectangle 12" width="70.232" height="12.949" transform="translate(530.154 316.418)" fill="#00abf4"/>
    <circle id="Ellipse_6" data-name="Ellipse 6" cx="6.617" cy="6.617" r="6.617" transform="translate(352.97 259.641)" fill="#00abf4"/>
    <circle id="Ellipse_7" data-name="Ellipse 7" cx="6.617" cy="6.617" r="6.617" transform="translate(378.088 259.641)" fill="#e6e6e6"/>
    <circle id="Ellipse_8" data-name="Ellipse 8" cx="6.617" cy="6.617" r="6.617" transform="translate(403.207 259.641)" fill="#e6e6e6"/>
    <circle id="Ellipse_9" data-name="Ellipse 9" cx="6.617" cy="6.617" r="6.617" transform="translate(136.349 259.641)" fill="#00abf4"/>
    <circle id="Ellipse_10" data-name="Ellipse 10" cx="6.617" cy="6.617" r="6.617" transform="translate(161.468 259.641)" fill="#00abf4"/>
    <circle id="Ellipse_11" data-name="Ellipse 11" cx="6.617" cy="6.617" r="6.617" transform="translate(186.586 259.641)" fill="#e6e6e6"/>
    <circle id="Ellipse_12" data-name="Ellipse 12" cx="6.617" cy="6.617" r="6.617" transform="translate(574.933 259.641)" fill="#00abf4"/>
    <circle id="Ellipse_13" data-name="Ellipse 13" cx="6.617" cy="6.617" r="6.617" transform="translate(600.051 259.641)" fill="#00abf4"/>
    <circle id="Ellipse_14" data-name="Ellipse 14" cx="6.617" cy="6.617" r="6.617" transform="translate(625.169 259.641)" fill="#00abf4"/>
    <path id="Path_13" data-name="Path 13" d="M787.957,269a36.686,36.686,0,1,0,36.686,36.686A36.686,36.686,0,0,0,787.957,269Zm0,11.006a11.006,11.006,0,1,1-11.006,11.006,11.006,11.006,0,0,1,11.006-11.006Zm0,52.983a26.726,26.726,0,0,1-22.012-11.747c.176-7.337,14.674-11.376,22.012-11.376s21.835,4.039,22.012,11.376a26.77,26.77,0,0,1-22.012,11.747Z" transform="translate(-187.117 -129.717)" fill="#00abf4"/>
    <path id="Path_14" data-name="Path 14" d="M572.26,269.613A36.686,36.686,0,1,0,608.946,306.3a36.686,36.686,0,0,0-36.686-36.686Zm0,11.006a11.006,11.006,0,1,1-11.006,11.006A11.006,11.006,0,0,1,572.26,280.619Zm0,52.983a26.726,26.726,0,0,1-22.012-11.747c.176-7.337,14.674-11.376,22.012-11.376s21.835,4.039,22.012,11.376A26.77,26.77,0,0,1,572.26,333.6Z" transform="translate(-187.117 -129.717)" fill="#00abf4"/>
    <path id="Path_15" data-name="Path 15" d="M355.2,269.425a36.686,36.686,0,1,0,36.686,36.686A36.686,36.686,0,0,0,355.2,269.425Zm0,11.006A11.006,11.006,0,1,1,344.2,291.437,11.006,11.006,0,0,1,355.2,280.431Zm0,52.983a26.726,26.726,0,0,1-22.012-11.747c.176-7.337,14.674-11.376,22.012-11.376s21.835,4.039,22.012,11.376A26.77,26.77,0,0,1,355.2,333.414Z" transform="translate(-187.117 -129.717)" fill="#00abf4"/>
    <path id="Path_16" data-name="Path 16" d="M1008.43,403.476s5.945,77.282-2.378,79.66-38.047,20.212-85.6,15.456c0,0-46.369,24.968-39.235,1.189s39.235-17.834,39.235-17.834,57.07-11.889,59.448-20.212-7.134-42.8-3.567-43.991S1008.43,403.476,1008.43,403.476Z" transform="translate(-187.117 -129.717)" fill="#ffb8b8"/>
    <path id="Path_17" data-name="Path 17" d="M982.272,372.563l19.023-2.378s19.023,36.858,8.323,42.8-38.047,10.7-38.047,8.323S982.272,372.563,982.272,372.563Z" transform="translate(-187.117 -129.717)" fill="#575a89"/>
  </g>
</svg>
