<svg xmlns="http://www.w3.org/2000/svg" width="1097.106" height="807.917" viewBox="0 0 1097.106 807.917">
  <g id="Group_3" data-name="Group 3" transform="translate(0.01 0.02)">
    <path id="Path_1" data-name="Path 1" d="M63.3,476c17.36,74.2,54.11,138.34,112.19,169.43,120.7,64.61,392.91,31.29,596.07-7A465.21,465.21,0,0,0,1036.1,487.2Z" transform="translate(-51.45 -46.05)" fill="#00abf4" opacity="0.1"/>
    <path id="Path_2" data-name="Path 2" d="M1128.65,126.76H1017.18a9.635,9.635,0,1,1,0-19.27h19.27a9.635,9.635,0,1,1,0-19.27h-13.76a9.635,9.635,0,1,1,0-19.27h58.18c-12.91-6-28-10.27-45.38-12.51-158.64-20.38-215.28-6.9-235.26,7-24.65,17.1-52.15,29.68-81.54,35.74-97.88,20.19-280.93,44.49-446.84-7.78-82.46-26-143.75,17.92-180.48,91.28H1148c-1.38-21.32-5.51-41-13.09-58.24a9.58,9.58,0,0,1-6.26,2.32Z" transform="translate(-51.45 -46.05)" fill="#00abf4" opacity="0.1"/>
    <path id="Path_3" data-name="Path 3" d="M53.84,321.15A491.061,491.061,0,0,0,58.16,450.6l978.68,35.79a460,460,0,0,0,68-103.7ZM440.92,413.5H421.65a9.635,9.635,0,0,1,0,19.27H310.18a9.635,9.635,0,1,1,0-19.27h19.27a9.635,9.635,0,1,1,0-19.27H315.69a9.635,9.635,0,1,1,0-19.27H427.16a9.635,9.635,0,0,1,0,19.27h13.76a9.635,9.635,0,0,1,0,19.27Z" transform="translate(-51.45 -46.05)" fill="#00abf4" opacity="0.1"/>
    <path id="Path_4" data-name="Path 4" d="M1148.05,183.34l-1068.49,26C66.57,242.74,58,280.51,54,319.67H1129.33a456.464,456.464,0,0,0,15.53-70.33C1148.06,226.32,1149.34,204.07,1148.05,183.34ZM270.92,268.5H251.65a9.635,9.635,0,0,1,0,19.27H140.18a9.635,9.635,0,1,1,0-19.27h19.27a9.635,9.635,0,0,1,0-19.27H145.69a9.635,9.635,0,1,1,0-19.27H257.16a9.635,9.635,0,0,1,0,19.27h13.76a9.635,9.635,0,1,1,0,19.27Z" transform="translate(-51.45 -46.05)" fill="#00abf4" opacity="0.1"/>
    <g id="Group_1" data-name="Group 1" opacity="0.1">
      <path id="Path_5" data-name="Path 5" d="M729,669.33s28.2-69.5,80.86-95.28A113.651,113.651,0,0,0,861.47,524a191.139,191.139,0,0,0,12.93-32.5" transform="translate(-51.45 -46.05)" fill="none" stroke="#535461" stroke-miterlimit="10" stroke-width="2"/>
      <path id="Path_6" data-name="Path 6" d="M907.49,475.05c-5.49,6.9-33.9,17-33.9,17s3.42-30,8.91-36.85a16,16,0,0,1,25,19.88Z" transform="translate(-51.45 -46.05)" fill="#00abf4"/>
      <path id="Path_7" data-name="Path 7" d="M897.74,529.71c-8.36,2.81-37.68-4.18-37.68-4.18s19.15-23.28,27.51-26.09a16,16,0,0,1,10.17,30.27Z" transform="translate(-51.45 -46.05)" fill="#00abf4"/>
      <path id="Path_8" data-name="Path 8" d="M844.88,594.31c-8.63-1.79-30.42-22.63-30.42-22.63s28.28-10.43,36.92-8.64a16,16,0,0,1-6.5,31.26Z" transform="translate(-51.45 -46.05)" fill="#00abf4"/>
      <path id="Path_9" data-name="Path 9" d="M793.88,634.19c-8.81-.31-33.81-17.16-33.81-17.16S786.19,602,795,602.28a16,16,0,1,1-1.12,31.91Z" transform="translate(-51.45 -46.05)" fill="#00abf4"/>
      <path id="Path_10" data-name="Path 10" d="M832.76,506c1.13,8.75,20.22,32.07,20.22,32.07s12.57-27.4,11.45-36.15A16,16,0,0,0,832.76,506Z" transform="translate(-51.45 -46.05)" fill="#00abf4"/>
      <path id="Path_11" data-name="Path 11" d="M773.7,553.39c3.69,8,28.89,24.55,28.89,24.55s3.8-29.91.11-37.91a16,16,0,1,0-29,13.37Z" transform="translate(-51.45 -46.05)" fill="#00abf4"/>
      <path id="Path_12" data-name="Path 12" d="M722.62,607.33c2.28,8.52,24.33,29.08,24.33,29.08s8.8-28.83,6.51-37.35a16,16,0,0,0-30.84,8.27Z" transform="translate(-51.45 -46.05)" fill="#00abf4"/>
      <path id="Path_13" data-name="Path 13" d="M907.49,475.05c-5.49,6.9-33.9,17-33.9,17s3.42-30,8.91-36.85a16,16,0,0,1,25,19.88Z" transform="translate(-51.45 -46.05)" opacity="0.25"/>
      <path id="Path_14" data-name="Path 14" d="M897.74,529.71c-8.36,2.81-37.68-4.18-37.68-4.18s19.15-23.28,27.51-26.09a16,16,0,0,1,10.17,30.27Z" transform="translate(-51.45 -46.05)" opacity="0.25"/>
      <path id="Path_15" data-name="Path 15" d="M844.88,594.31c-8.63-1.79-30.42-22.63-30.42-22.63s28.28-10.43,36.92-8.64a16,16,0,0,1-6.5,31.26Z" transform="translate(-51.45 -46.05)" opacity="0.25"/>
      <path id="Path_16" data-name="Path 16" d="M793.88,634.19c-8.81-.31-33.81-17.16-33.81-17.16S786.19,602,795,602.28a16,16,0,1,1-1.12,31.91Z" transform="translate(-51.45 -46.05)" opacity="0.25"/>
      <path id="Path_17" data-name="Path 17" d="M832.76,506c1.13,8.75,20.22,32.07,20.22,32.07s12.57-27.4,11.45-36.15A16,16,0,0,0,832.76,506Z" transform="translate(-51.45 -46.05)" opacity="0.25"/>
      <path id="Path_18" data-name="Path 18" d="M773.7,553.39c3.69,8,28.89,24.55,28.89,24.55s3.8-29.91.11-37.91a16,16,0,1,0-29,13.37Z" transform="translate(-51.45 -46.05)" opacity="0.25"/>
      <path id="Path_19" data-name="Path 19" d="M722.62,607.33c2.28,8.52,24.33,29.08,24.33,29.08s8.8-28.83,6.51-37.35a16,16,0,0,0-30.84,8.27Z" transform="translate(-51.45 -46.05)" opacity="0.25"/>
    </g>
    <g id="Group_2" data-name="Group 2" opacity="0.1">
      <path id="Path_20" data-name="Path 20" d="M709,567.71s3.56-74.92,44.69-116.71a113.65,113.65,0,0,0,32-64.35,191.133,191.133,0,0,0,1.43-34.92" transform="translate(-51.45 -46.05)" fill="none" stroke="#535461" stroke-miterlimit="10" stroke-width="2"/>
      <path id="Path_21" data-name="Path 21" d="M813,325.24c-2.89,8.33-26.35,27.26-26.35,27.26s-6.7-29.39-3.81-37.72A16,16,0,1,1,813,325.24Z" transform="translate(-51.45 -46.05)" fill="#00abf4"/>
      <path id="Path_22" data-name="Path 22" d="M821.88,380c-7,5.42-36.94,8.56-36.94,8.56s10.35-28.32,17.3-33.74A16,16,0,1,1,821.88,380Z" transform="translate(-51.45 -46.05)" fill="#00abf4"/>
      <path id="Path_23" data-name="Path 23" d="M793.43,458.52c-8.74,1.17-36.2-11.26-36.2-11.26s23.23-19.22,32-20.39a16,16,0,1,1,4.24,31.65Z" transform="translate(-51.45 -46.05)" fill="#00abf4"/>
      <path id="Path_24" data-name="Path 24" d="M758.54,513.05c-8.42,2.63-37.59-5-37.59-5s19.64-22.87,28.06-25.5a16,16,0,0,1,9.53,30.48Z" transform="translate(-51.45 -46.05)" fill="#00abf4"/>
      <path id="Path_25" data-name="Path 25" d="M752.71,379.22c4,7.88,29.72,23.55,29.72,23.55s2.77-30-1.19-37.9a16,16,0,0,0-28.53,14.35Z" transform="translate(-51.45 -46.05)" fill="#00abf4"/>
      <path id="Path_26" data-name="Path 26" d="M712.71,443.52c6.14,6.33,35.4,13.58,35.4,13.58s-6.33-29.47-12.47-35.8a16,16,0,0,0-22.93,22.23Z" transform="translate(-51.45 -46.05)" fill="#00abf4"/>
      <path id="Path_27" data-name="Path 27" d="M682.41,511.34c5,7.28,32.6,19.37,32.6,19.37s-1.26-30.12-6.24-37.4a16,16,0,0,0-26.35,18Z" transform="translate(-51.45 -46.05)" fill="#00abf4"/>
    </g>
    <path id="Path_28" data-name="Path 28" d="M351.19,821.81c39.32,13.22,87.29,5.18,131.9,6.11,6.11.13,12.57.51,17.47,2.79s7.31,6,10.67,9.15c12.5,11.79,38.11,15.58,60.5,13.58s42.92-8.62,64-13.66c36.52-8.72,78.27-12.68,114.29-3.18,3.31.87,6.79,1.87,10.33,1.53,7.9-.78,10.25-7.1,15.77-10.71,10-6.52,31.63-4.75,36-13.34,2.57-5-3.34-10.2-9.77-13.64-24.62-13.16-59.84-15.33-92.06-13.3s-63.9,7.63-96.29,7.65c-40.35,0-79.34-8.59-119.3-12.11-27.68-2.44-57.89-2.14-83.84,5C382.81,795.5,376.61,812.94,351.19,821.81Z" transform="translate(-51.45 -46.05)" fill="#00abf4" opacity="0.1"/>
    <rect id="Rectangle_1" data-name="Rectangle 1" width="7" height="99" transform="translate(365.51 184.9)" fill="#535461"/>
    <rect id="Rectangle_2" data-name="Rectangle 2" width="7" height="56" transform="translate(365.51 317.9)" fill="#535461"/>
    <rect id="Rectangle_3" data-name="Rectangle 3" width="315" height="684" rx="47.1" transform="translate(370.51 87.9)" fill="#535461"/>
    <rect id="Rectangle_4" data-name="Rectangle 4" width="315" height="623" rx="47.1" transform="translate(370.51 119.9)" fill="#00abf4"/>
    <rect id="Rectangle_5" data-name="Rectangle 5" width="52" height="7" rx="3.5" transform="translate(502.51 102.9)" fill="#eaeaf3"/>
    <circle id="Ellipse_1" data-name="Ellipse 1" cx="5" cy="5" r="5" transform="translate(567.51 101.9)" fill="#eaeaf3"/>
    <path id="Path_29" data-name="Path 29" d="M497.76,442.15v73a17.27,17.27,0,0,1-17.33,17.46c-9.64,0-19-7.81-19-17.46v-73c0-9.52,9.33-17.33,19-17.33a17.4,17.4,0,0,1,17.33,17.33Zm6.81,98.94a18.61,18.61,0,0,0,18.65,18.65h12.54l.19,38.51c0,23.25,34.79,23.07,34.79,0v-38.5h23.44v38.51c0,23.13,35,23.19,35,0V559.75h12.73a18.59,18.59,0,0,0,18.53-18.65V428H504.57ZM660.86,421.92h-157c0-27,16.13-50.42,40.08-62.64l-12-22.25c-1.76-3.09,2.71-5,4.22-2.39l12.23,22.44a85.14,85.14,0,0,1,68.25,0l12.16-22.37c1.58-2.71,6-.69,4.22,2.39l-12,22.18C644.73,371.5,660.86,394.95,660.86,421.92Zm-107.58-35a6.58,6.58,0,1,0,0,.02Zm71.47,0a6.592,6.592,0,1,0,0,.02Zm59.74,37.88a17.28,17.28,0,0,0-17.33,17.33v73a17.39,17.39,0,0,0,17.33,17.46c9.71,0,19-7.81,19-17.46v-73c-.03-9.68-9.36-17.31-19-17.31Z" transform="translate(-51.45 -46.05)" fill="#fff"/>
    <rect id="Rectangle_6" data-name="Rectangle 6" width="65" height="3" transform="translate(454.01 569.46)" fill="#535461"/>
    <rect id="Rectangle_7" data-name="Rectangle 7" width="43" height="3" transform="translate(543.01 569.46)" fill="#535461"/>
    <rect id="Rectangle_8" data-name="Rectangle 8" width="43" height="3" transform="translate(397.01 569.46)" fill="#535461"/>
    <rect id="Rectangle_9" data-name="Rectangle 9" width="43" height="3" transform="translate(611.01 569.46)" fill="#535461"/>
  </g>
</svg>
