<svg id="Group_1" data-name="Group 1" xmlns="http://www.w3.org/2000/svg" width="752.016" height="682" viewBox="0 0 752.016 682">
  <path id="Path_1" data-name="Path 1" d="M797.307,380.22c-1.587,1.091-3.144,2.2-4.7,3.341A410.078,410.078,0,0,0,770.1,518.293q-.009,7.955.346,15.869A398.186,398.186,0,0,0,792.84,650.178q1.044,2.949,2.126,5.871c.517,1.4,1.043,2.81,1.607,4.195.564.7,1.12,1.382,1.675,2.067.038.029.073.081.112.111.224.276.448.553.65.825.96,1.173,1.933,2.339,2.893,3.512l-.76.087-1.9.208.008.012c.641-.042,1.294-.094,1.939-.157.235-.01.491-.016.73-.048.214-.014.44-.037.654-.05,27.508-2,55.632-4.655,80.183-17.058,25.7-12.992,46.789-39.514,44.351-68.195A51.623,51.623,0,0,0,924.9,570.5c-.475-1.5-1.023-2.973-1.6-4.439a54.354,54.354,0,0,0-93.931-12.813c6.174-29.888,37.764-46.432,66.416-56.921,28.674-10.484,60.968-21.555,74.619-48.852,7.624-15.192,7.039-32.461.9-48.153-.186-.469-.382-.95-.59-1.424a79.312,79.312,0,0,0-40.179-41.636c-33.992-14.948-74.124-7.3-107.518,8.937a196.6,196.6,0,0,0-25.7,15.022Z" transform="translate(-223.992 -109)" fill="#00abf4" opacity="0.2"/>
  <path id="Path_2" data-name="Path 2" d="M901.291,567.183a122.379,122.379,0,0,0-68.951,33.848,125.231,125.231,0,0,0-33.034,57.424c-.33,1.245-.626,2.487-.9,3.732-.717-1.227-1.417-2.483-2.109-3.727-.445-.8-.9-1.605-1.331-2.41.517,1.4,1.043,2.81,1.607,4.195.564.7,1.12,1.382,1.675,2.067.038.029.073.081.112.111.224.276.448.553.65.825.96,1.173,1.933,2.339,2.893,3.512l-.76.087-1.9.208.008.012c.641-.042,1.294-.094,1.939-.157.235-.01.491-.016.73-.048.062-.376.145-.748.228-1.121A118.245,118.245,0,0,1,924.9,570.5c-.475-1.5-1.023-2.972-1.6-4.439A126.5,126.5,0,0,0,901.291,567.183Z" transform="translate(-223.992 -109)" fill="#fff"/>
  <path id="Path_3" data-name="Path 3" d="M809.5,461.846a134.646,134.646,0,0,0-26.286,28.99,111.719,111.719,0,0,0-9.711,18.35c-1.264,2.973-2.4,6.027-3.406,9.106q-.009,7.955.346,15.869a115.394,115.394,0,0,1,3.012-11.946c.628-2.154,1.337-4.269,2.1-6.363,8.534-23.45,25.067-42.41,44.911-57.156,21.265-15.78,45.493-28,70.182-37.393a331.4,331.4,0,0,1,78.579-19.433,2.377,2.377,0,0,0,2.069-2.551,2.045,2.045,0,0,0-.59-1.424,1.7,1.7,0,0,0-1.477-.4c-3.318.4-6.627.815-9.932,1.318a335.332,335.332,0,0,0-80.03,22.348C854.506,431.5,830.13,444.544,809.5,461.846Z" transform="translate(-223.992 -109)" fill="#fff"/>
  <circle id="Ellipse_1" data-name="Ellipse 1" cx="9.245" cy="9.245" r="9.245" transform="translate(706.958 200.86)" fill="#f2f2f2"/>
  <path id="Path_4" data-name="Path 4" d="M759.3,789H531.378a51.6,51.6,0,0,1-51.539-51.54V160.54A51.6,51.6,0,0,1,531.378,109H759.3a51.6,51.6,0,0,1,51.539,51.54V737.461A51.6,51.6,0,0,1,759.3,789Z" transform="translate(-223.992 -109)" fill="#3f3d56"/>
  <path id="Path_5" data-name="Path 5" d="M756.749,125h-25.37a8.548,8.548,0,0,0-8.54,8.54A17.477,17.477,0,0,1,705.379,151H581.3a17.477,17.477,0,0,1-17.46-17.46A8.548,8.548,0,0,0,555.3,125h-22.37a39.14,39.14,0,0,0-39.09,39.09V736.91A39.14,39.14,0,0,0,532.928,776H756.749a39.14,39.14,0,0,0,39.09-39.09V164.09A39.14,39.14,0,0,0,756.749,125Z" transform="translate(-223.992 -109)" fill="#fff"/>
  <path id="Path_6" data-name="Path 6" d="M674.589,136.5h-70a2.5,2.5,0,0,1,0-5h70a2.5,2.5,0,0,1,0,5Z" transform="translate(-223.992 -109)" fill="#fff"/>
  <circle id="Ellipse_2" data-name="Ellipse 2" cx="2" cy="2" r="2" transform="translate(459.596 23)" fill="#fff"/>
  <path id="Path_7" data-name="Path 7" d="M812.839,336.5a4.505,4.505,0,0,1-4.5-4.5V244a4.5,4.5,0,0,1,9,0v88a4.505,4.505,0,0,1-4.5,4.5Z" transform="translate(-223.992 -109)" fill="#3f3d56"/>
  <path id="Path_8" data-name="Path 8" d="M479.838,271.5a4.505,4.505,0,0,1-4.5-4.5V247a4.5,4.5,0,0,1,9,0v20A4.505,4.505,0,0,1,479.838,271.5Z" transform="translate(-223.992 -109)" fill="#3f3d56"/>
  <path id="Path_9" data-name="Path 9" d="M479.838,308.5a4.5,4.5,0,0,1-4.5-4.5V284a4.5,4.5,0,0,1,9,0v20a4.505,4.505,0,0,1-4.5,4.5Z" transform="translate(-223.992 -109)" fill="#3f3d56"/>
  <path id="Path_10" data-name="Path 10" d="M891.992,791h-667a1,1,0,0,1,0-2h667a1,1,0,0,1,0,2Z" transform="translate(-223.992 -109)" fill="#3f3d56"/>
  <path id="Path_11" data-name="Path 11" d="M62.649,669.9h12.26l5.832-47.288H62.647Z" fill="#ffb6b6"/>
  <path id="Path_12" data-name="Path 12" d="M283.514,774.9h24.145a15.387,15.387,0,0,1,15.386,15.385v.5H283.515Z" transform="translate(-223.992 -109)" fill="#2f2e41"/>
  <path id="Path_13" data-name="Path 13" d="M175.649,669.9h12.26l5.832-47.288H175.647Z" fill="#ffb6b6"/>
  <path id="Path_14" data-name="Path 14" d="M396.514,774.9h24.145a15.387,15.387,0,0,1,15.386,15.385v.5H396.515Z" transform="translate(-223.992 -109)" fill="#2f2e41"/>
  <path id="Path_15" data-name="Path 15" d="M160.846,290l8,51-76,1,10-49Z" fill="#ffb6b6"/>
  <path id="Path_16" data-name="Path 16" d="M395.838,437l19,65,3,267.1h-20.5l-49-214.6-45,209h-20l14-235s-7-58,17-75V438.583Z" transform="translate(-223.992 -109)" fill="#2f2e41"/>
  <path id="Path_17" data-name="Path 17" d="M286.8,487.791a15,15,0,0,0,9.612-20.9l32.332-105.408-23.781-4.714L275.4,460.091a15.084,15.084,0,0,0,11.408,27.7Z" transform="translate(-223.992 -109)" fill="#ffb6b6"/>
  <circle id="Ellipse_3" data-name="Ellipse 3" cx="34.3" cy="34.3" r="34.3" transform="translate(80.258 160.565) rotate(-45)" fill="#ffb6b6"/>
  <path id="Path_18" data-name="Path 18" d="M328.23,426.5A6.273,6.273,0,0,1,323.2,420.8c-.754-10.328-4.485-28.277-11.088-53.351a41.563,41.563,0,0,1,34.31-51.7h0a41.544,41.544,0,0,1,47.22,36.341c3.267,28.771-2.9,57.676-5.7,68.766a6.3,6.3,0,0,1-5.972,4.746l-52.389,1.012A6.252,6.252,0,0,1,328.23,426.5Z" transform="translate(-223.992 -109)" fill="#e4e4e4"/>
  <path id="Path_19" data-name="Path 19" d="M475.81,334.576a14.7,14.7,0,0,0-.773,2.182l-65.576,22.283-12.671-11.07-19.205,16.94,20.527,21.776a11.172,11.172,0,0,0,13.212,2.286l70.17-35.842a14.659,14.659,0,1,0-5.684-18.555Z" transform="translate(-223.992 -109)" fill="#ffb6b6"/>
  <path id="Path_20" data-name="Path 20" d="M407.175,360.259l-23.9,20.879a6.284,6.284,0,0,1-9.422-1.337l-17.1-26.626a17.453,17.453,0,0,1,26.358-22.885l24.011,20.453a6.284,6.284,0,0,1,.058,9.516Z" transform="translate(-223.992 -109)" fill="#e4e4e4"/>
  <path id="Path_21" data-name="Path 21" d="M324.971,388.472l-29.542-11.606a6.284,6.284,0,0,1-3.152-8.979l15.762-27.439a17.453,17.453,0,1,1,32.451,12.859l-7.1,30.732a6.284,6.284,0,0,1-8.421,4.433Z" transform="translate(-223.992 -109)" fill="#e4e4e4"/>
  <path id="Path_22" data-name="Path 22" d="M368.616,261.881c7.474,7.633,17.623,15.967,27.7,11.415,6.62-2.989,9.966-10.29,8.947-17.482-1.832-12.932-12.4-20.56-22.7-26.844-13.393-8.169-28.284-15.508-43.949-14.664S306.916,226.976,306.6,242.66c-.25,12.613,9.233,25.029,5.17,36.973-4.089,12.02-19.261,15.766-31.956,15.543s-26.551-2.233-37.105,4.825c-13.464,9-14.637,29.635-6.414,43.589s23.114,22.492,37.851,29.211c19.526,8.9,41.179,15.839,62.228,11.661s40.477-22.806,38.862-44.2c-.682-9.039-4.856-17.391-8.878-25.514s-8.05-16.582-8.4-25.639c-.294-7.548,2.639-15.662,8.49-20.121a6.2,6.2,0,0,0,2.223-6.943Z" transform="translate(-223.992 -109)" fill="#2f2e41"/>
  <path id="Path_23" data-name="Path 23" d="M788.143,408.884c-10.818,6.488-30.092,14.617-49.787,6.263l-12.732-5.4,25.513-28.6a121.849,121.849,0,1,1,37.005,27.738Z" transform="translate(-223.992 -109)" fill="#fff"/>
  <path id="Path_24" data-name="Path 24" d="M788.209,410.425c-10.395,6.1-30.2,14.537-50.385,5.973l-14.479-6.141,25.966-29.108a123.209,123.209,0,1,1,174.855,9.4h0a122.66,122.66,0,0,1-135.958,19.874ZM930.644,218.341a120.489,120.489,0,0,0-178.5,161.891l.822.906-25.064,28.1,10.985,4.659c19.5,8.271,38.791-.321,48.557-6.177l.631-.379.662.322A120.489,120.489,0,0,0,930.645,218.341Z" transform="translate(-223.992 -109)" fill="#00abf4"/>
  <path id="Path_25" data-name="Path 25" d="M944.261,298.527a112.135,112.135,0,0,0-102.214-111.69c3.26-.287,6.563-.442,9.9-.442a112.132,112.132,0,1,1,0,224.263c-3.335,0-6.634-.157-9.895-.443A112.137,112.137,0,0,0,944.261,298.527Z" transform="translate(-223.992 -109)" opacity="0.1"/>
  <rect id="Rectangle_1" data-name="Rectangle 1" width="80.124" height="7.441" transform="translate(553.102 167.167)" fill="#00abf4"/>
  <rect id="Rectangle_2" data-name="Rectangle 2" width="139.65" height="7.441" transform="translate(553.102 192.907)" fill="#00abf4"/>
  <rect id="Rectangle_3" data-name="Rectangle 3" width="139.513" height="7.441" transform="translate(553.102 218.646)" fill="#00abf4"/>
  <path id="Path_26" data-name="Path 26" d="M535.686,598.516a77.721,77.721,0,1,1,109.784-5.357L661.744,611.4l-8.121,3.445c-12.563,5.329-24.857.144-31.757-3.995a77.721,77.721,0,0,1-86.18-12.336Z" transform="translate(-223.992 -109)" fill="#fff"/>
  <path id="Path_27" data-name="Path 27" d="M587.8,619.6a78.3,78.3,0,0,1-52.7-20.443h0a78.589,78.589,0,1,1,111.531-6L663.2,611.728l-9.235,3.917c-12.877,5.463-25.507.083-32.138-3.81A78.693,78.693,0,0,1,587.8,619.6Zm-51.53-21.728a76.5,76.5,0,0,0,85.218,12.2l.422-.205.4.242c6.229,3.736,18.535,9.216,30.972,3.94l7.007-2.972L644.3,593.155l.524-.578a76.854,76.854,0,1,0-108.559,5.3Z" transform="translate(-223.992 -109)" fill="#00abf4"/>
  <path id="Path_28" data-name="Path 28" d="M522.286,540.461a71.525,71.525,0,0,1,65.2-71.241c-2.079-.183-4.186-.282-6.317-.282a71.523,71.523,0,0,0,0,143.046c2.128,0,4.231-.1,6.311-.282a71.526,71.526,0,0,1-65.191-71.241Z" transform="translate(-223.992 -109)" opacity="0.1"/>
  <rect id="Rectangle_4" data-name="Rectangle 4" width="51.107" height="4.746" transform="translate(353.814 417.199)" fill="#00abf4"/>
  <rect id="Rectangle_5" data-name="Rectangle 5" width="89.075" height="4.746" transform="translate(315.846 433.617)" fill="#00abf4"/>
  <rect id="Rectangle_6" data-name="Rectangle 6" width="88.988" height="4.746" transform="translate(315.933 450.035)" fill="#00abf4"/>
  <circle id="Ellipse_4" data-name="Ellipse 4" cx="11" cy="11" r="11" transform="translate(452.354 498.134)" fill="#00abf4"/>
  <circle id="Ellipse_5" data-name="Ellipse 5" cx="13" cy="13" r="13" transform="translate(466.354 291.134)" fill="#00abf4"/>
</svg>
